<svg width="118" height="589" viewBox="0 0 118 589" fill="none" xmlns="http://www.w3.org/2000/svg">
<path d="M86.7 552.9C86.7 558.5 85.7667 563.5 83.9 567.9C82.0333 572.3 79.3667 576.067 75.9 579.2C72.3667 582.267 68.1667 584.6 63.3 586.2C58.3667 587.8 52.8667 588.6 46.8 588.6C39.7333 588.6 33.3667 587.4 27.7 585C21.9667 582.6 17.0667 579.267 13 575C8.93333 570.667 5.83333 565.6 3.7 559.8C1.5 554 0.399997 547.7 0.399997 540.9C0.399996 535.967 0.933329 531.433 1.99999 527.3C3.06666 523.167 4.86666 519.367 7.39999 515.9C9.46666 513.033 11.9333 510.7 14.8 508.9C17.6667 507.033 21.3 505.667 25.7 504.8C30.0333 503.867 35.5333 503.4 42.2 503.4L85.5 503.4L85.5 518.3L46.7 518.3C43.5 518.3 40.1333 518.433 36.6 518.7C33 518.9 29.5667 519.467 26.3 520.4C23.0333 521.267 20.3 522.667 18.1 524.6C15.6333 526.667 13.9 529.1 12.9 531.9C11.9 534.633 11.4 537.867 11.4 541.6C11.4 545.667 12.1 549.667 13.5 553.6C14.9 557.467 17.0667 560.967 20 564.1C22.8667 567.233 26.6 569.733 31.2 571.6C35.7333 573.467 41.1667 574.4 47.5 574.4C51.7667 574.4 55.5333 574.067 58.8 573.4C62.0667 572.667 64.9 571.7 67.3 570.5C69.6333 569.233 71.5333 567.8 73 566.2C74.4 564.533 75.4 562.733 76 560.8L75.8 557.7C76 556.7 76.1667 555.667 76.3 554.6C76.3667 553.467 76.4 552.333 76.4 551.2C76.4 547.467 75.4333 544.933 73.5 543.6C71.5 542.2 69.2667 541.5 66.8 541.5C64.6667 541.5 62.7333 542.067 61 543.2C59.2667 544.333 58.4 546.167 58.4 548.7C58.4 550.7 59.0667 552.433 60.4 553.9C61.7333 555.367 63.8333 556.1 66.7 556.1C69.2333 556.1 71.6 555.667 73.8 554.8C75.9333 553.933 77.6 552.867 78.8 551.6L78.8 563.8C77.6 564.667 75.9 565.667 73.7 566.8C71.5 567.933 68.9333 568.5 66 568.5C62.5333 568.5 59.4667 567.767 56.8 566.3C54.1333 564.833 52.0333 562.567 50.5 559.5C48.9 556.433 48.1 552.567 48.1 547.9C48.1 543.233 48.9333 539.4 50.6 536.4C52.2667 533.4 54.5 531.167 57.3 529.7C60.1 528.233 63.1667 527.5 66.5 527.5C70.9667 527.5 74.7 528.533 77.7 530.6C80.7 532.667 82.9667 535.6 84.5 539.4C85.9667 543.133 86.7 547.633 86.7 552.9ZM28.1 433.067C28.1 426.867 29.4333 421.834 32.1 417.967C34.7 414.101 38.3 411.267 42.9 409.467C47.5 407.601 52.7 406.667 58.5 406.667C63.5667 406.667 67.8 407.267 71.2 408.467C74.6 409.601 77.3667 411.434 79.5 413.967C81.0333 415.767 82.2333 417.801 83.1 420.067C83.9667 422.334 84.6 425.067 85 428.267C85.3333 431.401 85.5 435.301 85.5 439.967L85.5 487.467L29.3 487.467L29.3 472.567L74.8 472.567L74.8 454.167L50 454.167C45.8667 454.167 42.5 453.734 39.9 452.867C37.3 451.934 35.1333 450.601 33.4 448.867C31.6667 447.067 30.3667 444.867 29.5 442.267C28.5667 439.601 28.1 436.534 28.1 433.067ZM38.8 432.067C38.8 432.934 38.9333 433.801 39.2 434.667C39.4667 435.467 39.9333 436.201 40.6 436.867C41.4667 437.734 42.6667 438.367 44.2 438.767C45.6667 439.101 48.1 439.267 51.5 439.267L74.8 439.267L74.8 435.467C74.8 431.934 74.3 429.167 73.3 427.167C72.2333 425.101 70.5 423.667 68.1 422.867C65.7 422.001 62.5 421.567 58.5 421.567C54.8333 421.567 51.5333 421.901 48.6 422.567C45.6 423.234 43.2333 424.334 41.5 425.867C39.7 427.401 38.8 429.467 38.8 432.067ZM85.5 393.912L29.3 393.912L29.3 334.212L40 334.212L40 348.512L85.5 348.512L85.5 363.412L40 363.412L40 379.012L85.5 379.012L85.5 393.912ZM28.1 270.177C28.1 263.977 29.4333 258.943 32.1 255.077C34.7 251.21 38.3 248.377 42.9 246.577C47.5 244.71 52.7 243.777 58.5 243.777C63.5667 243.777 67.8 244.377 71.2 245.577C74.6 246.71 77.3667 248.543 79.5 251.077C81.0333 252.877 82.2333 254.91 83.1 257.177C83.9667 259.443 84.6 262.177 85 265.377C85.3333 268.51 85.5 272.41 85.5 277.077L85.5 324.577L29.3 324.577L29.3 309.677L74.8 309.677L74.8 291.277L50 291.277C45.8667 291.277 42.5 290.843 39.9 289.977C37.3 289.043 35.1333 287.71 33.4 285.977C31.6666 284.177 30.3666 281.977 29.5 279.377C28.5667 276.71 28.1 273.643 28.1 270.177ZM38.8 269.177C38.8 270.043 38.9333 270.91 39.2 271.777C39.4667 272.577 39.9333 273.31 40.6 273.977C41.4667 274.843 42.6667 275.477 44.2 275.877C45.6667 276.21 48.1 276.377 51.5 276.377L74.8 276.377L74.8 272.577C74.8 269.043 74.3 266.277 73.3 264.277C72.2333 262.21 70.5 260.777 68.1 259.977C65.7 259.11 62.5 258.677 58.5 258.677C54.8333 258.677 51.5333 259.01 48.6 259.677C45.6 260.343 43.2333 261.443 41.5 262.977C39.7 264.51 38.8 266.577 38.8 269.177ZM89.8 309.677C89.8 308.343 89.8333 306.977 89.9 305.577C90.0333 304.11 90.2333 302.777 90.5 301.577L100.4 302.277C100.267 302.943 100.167 303.743 100.1 304.677C100.1 305.61 100.1 306.61 100.1 307.677C100.1 309.343 100.333 310.777 100.8 311.977C101.333 313.11 102.2 313.677 103.4 313.677C104.467 313.677 105.267 313.277 105.8 312.477C106.333 311.61 106.7 310.543 106.9 309.277C107.1 307.943 107.2 306.577 107.2 305.177L107.2 302.477C107.2 299.543 106.867 297.01 106.2 294.877C105.533 292.677 104.5 290.81 103.1 289.277C101.767 287.677 100.067 286.343 98 285.277C97.2667 284.877 96.5667 284.177 95.9 283.177C95.3 282.177 94.8 280.777 94.4 278.977C94.0667 277.177 93.9 274.943 93.9 272.277L96.8 263.177C97.4 266.043 98.1 268.143 98.9 269.477C99.7667 270.743 100.867 271.677 102.2 272.277C105.733 273.81 108.633 275.91 110.9 278.577C113.233 281.177 114.933 284.343 116 288.077C117.067 291.81 117.6 296.21 117.6 301.277L117.6 304.977C117.6 308.577 117.2 311.943 116.4 315.077C115.6 318.143 114.567 320.577 113.3 322.377C112.367 323.777 111.067 325.043 109.4 326.177C107.733 327.243 105.667 327.777 103.2 327.777C99.0667 327.777 95.8 326.21 93.4 323.077C91 319.943 89.8 315.477 89.8 309.677ZM103.9 276.077L102.7 276.977C102.1 279.643 101.133 282.043 99.8 284.177C98.5333 286.243 96.7 287.91 94.3 289.177C91.9667 290.377 89 291.043 85.4 291.177L85.3 276.777C86.9 276.777 88.2667 276.51 89.4 275.977C90.6 275.377 91.5 274.443 92.1 273.177C92.5667 272.243 92.8667 271.177 93 269.977C93.2 268.777 93.3 267.143 93.3 265.077L93.3 254.477L103.9 254.477L103.9 276.077ZM0.399984 247.122C0.399984 241.855 1.16665 237.355 2.69998 233.622C4.16664 229.822 6.06665 226.789 8.39998 224.522C9.99998 222.989 12 221.589 14.4 220.322C16.7333 219.055 19.8333 218.055 23.7 217.322C27.5 216.522 32.4666 216.122 38.6 216.122L85.5 216.122L85.5 231.022L42.5 231.022C37.3666 231.022 33.0666 231.189 29.6 231.522C26.0666 231.855 23.1333 232.455 20.8 233.322C18.4 234.189 16.4 235.422 14.8 237.022C13.5333 238.289 12.5666 239.722 11.9 241.322C11.2333 242.922 10.9 244.755 10.9 246.822C10.9 249.689 11.4333 251.955 12.5 253.622C13.5666 255.355 14.9333 256.589 16.6 257.322C18.2 258.055 19.9 258.422 21.7 258.422C23.5667 258.422 25.5667 258.122 27.7 257.522C29.7666 256.989 31.8666 256.155 34 255.022L34 269.822C32.4 270.689 30.5 271.355 28.3 271.822C26.1 272.355 23.9667 272.622 21.9 272.622C18.1 272.622 14.8667 271.889 12.2 270.422C9.46665 268.955 7.23332 266.989 5.49998 264.522C3.76665 262.055 2.49998 259.289 1.69998 256.222C0.833316 253.222 0.399984 250.189 0.399984 247.122ZM86.7 178.76C86.7 183.76 86.0333 188.16 84.7 191.96C83.3 195.76 81.3 198.727 78.7 200.86C76.0333 202.993 72.8 204.06 69 204.06C65.3333 204.06 62.1666 202.993 59.5 200.86C56.7666 198.66 54.6333 195.193 53.1 190.46C51.5666 185.727 50.8 179.527 50.8 171.86L50.8 150.66C50.8 146.393 50.9666 142.86 51.3 140.06C51.6333 137.26 52.2 134.86 53 132.86C53.7333 130.86 54.7333 128.993 56 127.26C57.4 125.26 59.2666 123.693 61.6 122.56C63.8666 121.36 66.4666 120.76 69.4 120.76C74.8 120.76 79.0333 122.493 82.1 125.96C85.1666 129.36 86.7 134.26 86.7 140.66C86.7 142.26 86.6 144.093 86.4 146.16C86.2666 148.16 85.9666 150.027 85.5 151.76L75.2 149.36C75.4666 148.427 75.6666 147.493 75.8 146.56C75.8666 145.627 75.9 144.627 75.9 143.56C75.9 140.76 75.3333 138.627 74.2 137.16C73 135.693 71.1666 134.96 68.7 134.96C66.9666 134.96 65.6 135.427 64.6 136.36C63.5333 137.227 62.7333 138.46 62.2 140.06C61.6666 141.593 61.3333 143.36 61.2 145.36C61 147.36 60.9 149.427 60.9 151.56L60.9 173.66C60.9 175.993 61.0333 178.227 61.3 180.36C61.5 182.427 61.9666 184.193 62.7 185.66C63.3666 186.927 64.2 187.86 65.2 188.46C66.2 189.06 67.3666 189.36 68.7 189.36C71.2333 189.36 73.1 188.327 74.3 186.26C75.5 184.127 76.1 181.293 76.1 177.76C76.1 175.16 75.7 172.96 74.9 171.16C74.0333 169.293 72.5666 167.86 70.5 166.86C68.3666 165.86 65.4333 165.36 61.7 165.36L40 165.36L40 180.46L55.3 180.46L56.9 193.86L29.3 193.86L29.3 132.06L40 132.06L40 150.86L61.5 150.86C66.1666 150.86 69.8666 151.327 72.6 152.26C75.2666 153.127 77.5333 154.393 79.4 156.06C82.0666 158.527 83.9666 161.693 85.1 165.56C86.1666 169.36 86.7 173.76 86.7 178.76ZM86.7 89.1562C86.7 93.7562 85.7666 97.7896 83.9 101.256C82.0333 104.656 79.2333 107.323 75.5 109.256C71.7 111.19 66.9666 112.156 61.3 112.156C55.9666 112.156 51.2333 111.256 47.1 109.456C42.9666 107.59 39.5 105.09 36.7 101.956C33.8333 98.7562 31.7 95.0896 30.3 90.9562C28.8333 86.8229 28.1 82.4229 28.1 77.7562C28.1 74.2229 28.4333 71.0562 29.1 68.2562C29.7666 65.4562 30.7666 62.7896 32.1 60.2562C33.4333 57.6562 35.1 54.9896 37.1 52.2562L48.9 58.2562C46.1 60.5229 43.7666 63.2896 41.9 66.5562C39.9666 69.7562 39 73.6562 39 78.2562C39 82.3229 39.9666 85.9229 41.9 89.0562C43.8333 92.1229 46.5666 94.5562 50.1 96.3562C53.6333 98.0896 57.8 98.9562 62.6 98.9562C65.9333 98.9562 68.6333 98.5896 70.7 97.8562C72.7 97.1229 74.1666 96.0896 75.1 94.7562C76.0333 93.3562 76.5 91.6896 76.5 89.7562C76.5 88.2896 76.2 87.0229 75.6 85.9562C75 84.8896 74.1333 84.0896 73 83.5562C71.8666 82.9562 70.4666 82.6562 68.8 82.6562C66.2666 82.6562 64.3333 83.3562 63 84.7562C61.6 86.1562 60.9 88.0229 60.9 90.3562C60.9 93.1562 61.7333 95.6562 63.4 97.8562C65 100.056 66.7666 102.056 68.7 103.856L59.1 106.056C56.7666 103.59 54.8 100.79 53.2 97.6562C51.6 94.5229 50.8 90.8562 50.8 86.6562C50.8 81.3229 52.3 76.9896 55.3 73.6562C58.3 70.3229 62.5666 68.6562 68.1 68.6562C71.9666 68.6562 75.3 69.4229 78.1 70.9562C80.8333 72.4896 82.9666 74.7896 84.5 77.8562C85.9666 80.8562 86.7 84.6229 86.7 89.1562ZM85.5 59.8562L40.2 59.8562L37.6 57.8562L29.3 57.7562L29.3 0.856237L40 0.856237L40 15.1562L85.5 15.1562L85.5 30.0562L40 30.0562L40 44.9562L85.5 44.9562L85.5 59.8562ZM19.3 57.8562C19.3 60.2562 18.5333 62.2229 17 63.7562C15.4 65.2896 13.4 66.0562 11 66.0562C8.59997 66.0562 6.63331 65.2896 5.09997 63.7562C3.49997 62.2229 2.69997 60.2562 2.69997 57.8562C2.69997 55.5229 3.49997 53.5896 5.09997 52.0562C6.63331 50.5229 8.59997 49.7562 11 49.7562C13.4 49.7562 15.4 50.5229 17 52.0562C18.5333 53.5896 19.3 55.5229 19.3 57.8562Z" fill="#5E2887"/>
</svg>
