<svg xmlns="http://www.w3.org/2000/svg" xmlns:xlink="http://www.w3.org/1999/xlink" width="170" height="300" viewBox="0 0 170 300">
  <defs>
    <clipPath id="clip-path">
      <rect id="Rectangle_140" data-name="Rectangle 140" width="170" height="300" transform="translate(2348 763)" fill="#fff"/>
    </clipPath>
    <clipPath id="clip-path-2">
      <rect id="Rectangle_139" data-name="Rectangle 139" width="164.504" height="381.745" fill="none"/>
    </clipPath>
  </defs>
  <g id="Mask_Group_1" data-name="Mask Group 1" transform="translate(-2348 -763)" clip-path="url(#clip-path)">
    <g id="Group_278" data-name="Group 278" transform="translate(2351.77 766.128)">
      <g id="Group_277" data-name="Group 277" clip-path="url(#clip-path-2)">
        <path id="Path_646" data-name="Path 646" d="M13.036,90.111l-.031-.032a7.3,7.3,0,0,0-2.647-1.7q-.505-.063-.883-.094,2.3.315,4.79,4.664l.441-.126a.92.92,0,0,0,.221-.031h.1l-1.954-2.616-.063-.063Zm.095-.032.157-.031.032-.063-.189.094M3.236,78.387q0,.031.063.063v-.032Z" fill="#d0a070"/>
        <path id="Path_647" data-name="Path 647" d="M6.229,60.266a42.744,42.744,0,0,1,3.813,8.288q.6,2.616.252,2.868a4.977,4.977,0,0,0-.567,3.5v.127l3.656-1.2v.063c.042-.042.074-.042.094,0q2.524.346,2.553,1.7a.183.183,0,0,1,.064.126.363.363,0,0,1-.031.157.185.185,0,0,1-.127.032l-.063.031q.661-1.166-2.4-1.827L8.971,75.677l-.662.126-3.089.882a1.026,1.026,0,0,0,.6,1.1.827.827,0,0,0,.947.253L9.034,77.5l1.26.063a3.25,3.25,0,0,1,2.868.977.6.6,0,0,0,.189.031l.032.126a.088.088,0,0,1-.032.063,6.772,6.772,0,0,0-.756,3.971,5.275,5.275,0,0,0,1.544,3.057c-.083.021-.115.042-.094.063v.032c-.042.042-.053.073-.032.094q-.063,0-.063-.126a4.679,4.679,0,0,1-1.67-3.088,8.019,8.019,0,0,1,.662-4,2.351,2.351,0,0,0-2.4-.724l.5,2.08q-.031.094,0,.126l-.032.063a2.549,2.549,0,0,1-2.4-.189.306.306,0,0,1-.158-.127l-.535-.913,1.008,3.781a2.76,2.76,0,0,1-2.111.536H6.766a2.474,2.474,0,0,0-.758-.347l-1.7.064a2.856,2.856,0,0,1,.725.661,1.45,1.45,0,0,0,.126.252,5.242,5.242,0,0,0,.221.725,10.091,10.091,0,0,0,1.8,1.765,6.808,6.808,0,0,0,3.971,1.7c-.273.063-.535.116-.788.158a7.273,7.273,0,0,1,2.648,1.7l.031.032h-.031l.063.063,1.955,2.616a16.993,16.993,0,0,0,2.394-.631c.3-.147.567-.294.819-.441a6.756,6.756,0,0,0,2.773-2.647l.033-.032v-.063q-.505-.882-.945-1.8a4.524,4.524,0,0,0-.316-.63,2.962,2.962,0,0,1-.19-.379l-.031-.031c.021.042.021.074,0,.1a17.263,17.263,0,0,1-1.324-1.608q.031-.094,0-.126v-.063a9.209,9.209,0,0,0-.094-1.229q-.093-.693-.126-1.292t-.473-3.971q-.472-3.372-3.718-9.549A104.675,104.675,0,0,0,6.418,56.358a2.7,2.7,0,0,0-.788,1.387,4.033,4.033,0,0,0,.6,2.521m7.059,29.782-.157.031.189-.094-.032.063M2.51,73.912a2.677,2.677,0,0,0-.944.662,2.692,2.692,0,0,0-.316.22v.032a3.255,3.255,0,0,0-.347.41,2.873,2.873,0,0,1-.221.315,5.308,5.308,0,0,0,.568,4.79L3.3,78.45c-.043-.021-.064-.042-.064-.063l.064.032v-.032a6.77,6.77,0,0,1-.789-4.475M4.528,71.99c-.084-.084-.274-.1-.568-.032a1.57,1.57,0,0,0-.883.41c-.293.231-.43.4-.409.5q0,.189-.032,1.481a8.713,8.713,0,0,0,.914,3.782l.1-.031,1.228-1.072v-.473l.662-.189.22-.22a9.83,9.83,0,0,1-.441-3.877,1.278,1.278,0,0,0-.252-.189.245.245,0,0,0-.221-.063.542.542,0,0,1-.314-.031m5.2-1.135L9.286,70.1a3.282,3.282,0,0,0-2.112-.473,2.284,2.284,0,0,0-1.2.567,6.617,6.617,0,0,0-.347.851l.126,1.009a.513.513,0,0,0-.031.157,10.277,10.277,0,0,0,.378,4l3.309-1.419a8.271,8.271,0,0,1-.126-1.418,1.6,1.6,0,0,1,.063-.441,8.653,8.653,0,0,1,.378-2.08" fill="#d0a070"/>
        <path id="Path_648" data-name="Path 648" d="M10.042,68.555a42.717,42.717,0,0,0-3.813-8.289,4.033,4.033,0,0,1-.6-2.521,2.7,2.7,0,0,1,.788-1.387A104.527,104.527,0,0,1,13.824,68.4q3.247,6.177,3.719,9.549.441,3.372.473,3.971t.126,1.292a9.221,9.221,0,0,1,.094,1.229V84.5q.033.032,0,.126a17.506,17.506,0,0,0,1.324,1.608c.021-.021.021-.053,0-.1l.032.032a3.16,3.16,0,0,0,.189.378l-.032-.221-.945-1.8q-.882-6.366-1.481-8.95A14.5,14.5,0,0,0,15.81,71.8q-4.98-9.234-9.3-15.6a1.561,1.561,0,0,0-.095-.157,3.114,3.114,0,0,0-1.1,1.67q-.252.883,1.324,3.625a22.017,22.017,0,0,1,3.435,8.729Q8.151,69,7.269,69.279a3.162,3.162,0,0,0-1.544.82,1.884,1.884,0,0,0-.378,1.828,1.2,1.2,0,0,0-1.229-.315,2.231,2.231,0,0,0-1.355.787q-.663.663-.316,1.167a1.35,1.35,0,0,0-.914.378,1.766,1.766,0,0,0-.472.63l-.032.032a4.33,4.33,0,0,1-.315.409,1.88,1.88,0,0,1-.284.347H.4a5.853,5.853,0,0,0,.63,5.389q1.261,1.955,2.395,1.891a4.275,4.275,0,0,0,.315.41,10.832,10.832,0,0,0,1.009.819Q4.653,84,5.756,85.51a9.835,9.835,0,0,0,3.719,2.773c.252.021.547.053.883.1q.378-.063.788-.158a6.8,6.8,0,0,1-3.971-1.7,10.009,10.009,0,0,1-1.8-1.764,5.366,5.366,0,0,1-.22-.725,1.381,1.381,0,0,1-.126-.252,2.872,2.872,0,0,0-.725-.662l1.7-.063a2.427,2.427,0,0,1,.756.346h.063a2.763,2.763,0,0,0,2.111-.535L7.931,79.081,8.467,80a.3.3,0,0,0,.157.126,2.551,2.551,0,0,0,2.4.189l.031-.063q-.031-.032,0-.126l-.5-2.08a2.35,2.35,0,0,1,2.4.725,8.024,8.024,0,0,0-.662,4,4.678,4.678,0,0,0,1.671,3.089c0,.084.02.126.063.126-.022-.021-.011-.053.031-.1v-.031c-.021-.021.011-.042.094-.063A5.281,5.281,0,0,1,12.6,82.737a6.762,6.762,0,0,1,.757-3.971.09.09,0,0,0,.031-.063l-.031-.127a.589.589,0,0,1-.189-.031,3.255,3.255,0,0,0-2.868-.977L9.034,77.5l-2.269.536a.826.826,0,0,1-.945-.252,1.025,1.025,0,0,1-.6-1.1L8.309,75.8l.662-.126,4.507-1.544q3.057.661,2.4,1.828l.063-.032a.183.183,0,0,0,.126-.031.353.353,0,0,0,.032-.158.179.179,0,0,0-.064-.126q-.031-1.354-2.552-1.7c-.021-.042-.053-.042-.095,0v-.063l-3.656,1.2v-.126a4.975,4.975,0,0,1,.568-3.5q.346-.252-.253-2.867M9.286,70.1l.441.756a8.662,8.662,0,0,0-.378,2.08,1.6,1.6,0,0,0-.063.441,8.282,8.282,0,0,0,.126,1.419L6.1,76.213a10.258,10.258,0,0,1-.378-4,.513.513,0,0,1,.031-.157L5.63,71.044a6.676,6.676,0,0,1,.347-.851,2.287,2.287,0,0,1,1.2-.567,3.289,3.289,0,0,1,2.111.473M3.96,71.958c.294-.063.484-.052.567.032a.544.544,0,0,0,.315.031.244.244,0,0,1,.221.063,1.309,1.309,0,0,1,.252.189,9.812,9.812,0,0,0,.441,3.877l-.22.22-.662.189v.473L3.645,78.1l-.1.031a8.713,8.713,0,0,1-.914-3.782q.033-1.292.032-1.481c-.021-.105.115-.273.41-.5a1.564,1.564,0,0,1,.882-.41M1.565,74.574a2.688,2.688,0,0,1,.945-.662A6.776,6.776,0,0,0,3.3,78.387v.063L1.25,80.341a5.308,5.308,0,0,1-.568-4.79A2.873,2.873,0,0,0,.9,75.236a3.255,3.255,0,0,1,.347-.41v-.031a2.873,2.873,0,0,1,.315-.221" fill="#d0a070"/>
        <path id="Path_649" data-name="Path 649" d="M21.041,89.055a.077.077,0,0,1-.068-.04c-.335-.586-.654-1.191-.948-1.8a4.325,4.325,0,0,0-.312-.624,3.231,3.231,0,0,1-.194-.387.079.079,0,1,1,.145-.063,3.245,3.245,0,0,0,.184.369,4.42,4.42,0,0,1,.321.642c.29.6.607,1.2.94,1.786a.078.078,0,0,1-.068.118" fill="#d0a070"/>
        <path id="Path_650" data-name="Path 650" d="M45.4,122.761q5.074,2.836,7.627,2.836l-4.539-18.373.725-2.269q-3.372-2.207-6.366-3.94-5.925-3.435-9.99-5.767L18.836,84.533a9.5,9.5,0,0,0-6.745,5.42A167.317,167.317,0,0,0,45.4,122.761" fill="#d0a070"/>
        <path id="Path_651" data-name="Path 651" d="M60.058,83.4q-1.318,2.134-2.805,4.475c-.972,1.523-1.926.484-2.86,1.991-4.7,7.58-8.927,17.517-12.677,24.7L53.03,125.723c5.1-7.455,12.286-15.1,17.379-22.938,1.848-2.845,1.605-5.714,3.453-8.609Z" fill="#d0a070"/>
        <path id="Path_652" data-name="Path 652" d="M62.205,74.387l.536-.945c-1.78,3.472-4.014,9.495-8.348,16.423l16.016,12.92C75.152,95.4,76.854,84.88,81.587,77.16L71.722,62.411q-5.955,3.215-9.517,11.976" fill="#69329a"/>
        <path id="Path_653" data-name="Path 653" d="M88.3,59.229s-12.226.5-12.98,1.256-9.547,3.266-8.793,9.8S69.54,91.135,71.55,93.9,90.643,89.376,91.4,88.623s.67-4.1.67-4.1L98.933,80.5l1.089-.754" fill="#69329a"/>
        <path id="Path_654" data-name="Path 654" d="M164.336,281.983,151.942,286l1.005,4.857,11.556-4.522Z" fill="#30a9e0"/>
        <path id="Path_655" data-name="Path 655" d="M123.607,37.423s-3.559,9.2-6.388,11.549c-3.266,2.709,3.9,7.93,3.9,7.93s-3.9,5.131-1.847,8.63A16.768,16.768,0,0,0,124.4,70.9s-4.311,3.5-1.437,7,4.927,2.1,4.927,2.1-4.106,4.432-1.437,7.231,3.7,2.8,3.7,2.8,1.847-2.1,3.079,5.131,2.053,10.5,4.106,2.566-2.464-10.263-2.464-10.263,3.9-2.1,2.464-6.064-4.106-3.965-4.106-3.965a8.188,8.188,0,0,0,1.848-4.9c0-2.8-5.133-4.2-5.133-4.2s3.9-.466,2.874-5.831a13.083,13.083,0,0,0-4.721-7.93s5.337-4.2.616-14.694-5.109-2.452-5.109-2.452" fill="#191919"/>
        <path id="Path_656" data-name="Path 656" d="M97.845,47s-1.172,6.867-3.182,9.212S88.3,59.228,88.3,59.228L99.45,78.835s19.331-11.9,23.015-17.932c0,0-4.815-2.805-5.945-4.941s-1.173-8.541-1.173-8.541L102.7,45.662l-5.276,1.507" fill="#d0a070"/>
        <path id="Path_657" data-name="Path 657" d="M120.288,58.726s30.65,1.507,35.674,6.532-15.827,45.974-15.827,45.974-3.266,18.842-2.764,25.123-12.31,68.334-15.324,74.614-15.576,29.143-44.216,44.719l-5.779,2.763s-10.551-79.639.754-99.485,4.773-41.453,4.02-47.231S73.309,94.4,73.309,94.4L100.19,80.08l21.857-17.837Z" fill="#30a9e0"/>
        <path id="Path_658" data-name="Path 658" d="M71.926,255.437,66.525,360.7s36.176,24.62,56.777,20.6,37.181-26.128,37.181-26.128l-23.95-195.119Z" fill="#30a9e0"/>
        <path id="Path_659" data-name="Path 659" d="M101.7,230.063,88.633,368.74l11.389,4.355,6.365-145.377Z" fill="#4ba0bd"/>
        <path id="Path_660" data-name="Path 660" d="M110.071,222.024l5.025-4.355,7.034,158.106h-9.714Z" fill="#4ba0bd"/>
        <path id="Path_661" data-name="Path 661" d="M117.775,211.975l3.936-7.369,16.5,158.44,2.01,6.7-9.379,1.675Z" fill="#4ba0bd"/>
        <path id="Path_662" data-name="Path 662" d="M122.465,200.251l2.01-5.694s11.64,21.856,14.32,25.206a80.77,80.77,0,0,1,5.862,9.128l1.256,10.216s-16.414-23.447-20.1-29.477-3.35-9.379-3.35-9.379" fill="#4ba0bd"/>
        <path id="Path_663" data-name="Path 663" d="M129.081,188.275l12.813,11.64.753,10.635L128.16,195.226Z" fill="#4ba0bd"/>
        <path id="Path_664" data-name="Path 664" d="M66.86,359.361s28.472,16.413,38.521,17.753,11.054,4.355,21.773-.335,26.924-13.189,32.953-23.238l-1.13-9.924s-7.035,9.715-13.4,14.4-22.443,13.734-26.8,13.064-18.423-3.015-28.472-7.7-23.029-12.729-23.029-12.729Z" fill="#69329a"/>
        <path id="Path_665" data-name="Path 665" d="M156.3,70.617l8.039,211.366L151.942,286l-10.049-92.786s-6.029-28.808-5.359-33.162,3.684-29.812,3.684-29.812L150.6,75.977,156.3,67.6" fill="#69329a"/>
        <path id="Path_666" data-name="Path 666" d="M149.43,62.411l5.3,2.089a3.5,3.5,0,0,1,1.912,4.69L142.27,109.474l-2.763,20.978s-.754,19.344-9.924,59.289-52,64.189-52,64.189l-5.652,1.507-.377-6.909s8.667-3.14,11.054-5.276,34.041-29.142,40.573-55.4,7.788-61.927,7.788-61.927l.753-17.21A231.461,231.461,0,0,1,149.43,62.411" fill="#69329a"/>
        <path id="Path_667" data-name="Path 667" d="M92.4,90.883s25.751-16.832,31.152-22.862,6.783-8.541,6.783-8.541l-9.8-.587s-18.59,19.68-27.886,24.7l-2.638,1.885Z" fill="#69329a"/>
        <path id="Path_668" data-name="Path 668" d="M108.463,54.216s-3.269,1.733-7.845-2.476S89.941,42.828,90.6,27.975s9.37-21.786,12.638-22.529,15.036-4.208,18.522,5.447,3.705,27.727-2.179,35.153-11.113,8.17-11.113,8.17" fill="#d0a070"/>
        <path id="Path_669" data-name="Path 669" d="M95.9,31.523c0,3.19-1.659,5.776-3.7,5.776s-3.705-2.586-3.705-5.776,1.659-5.776,3.705-5.776,3.7,2.586,3.7,5.776" fill="#d0a070"/>
        <path id="Path_670" data-name="Path 670" d="M90.822,33.7a.266.266,0,0,1-.516.1c-1.115-2.723-3.925-10.371-2.375-14.914,1.91-5.6,3.438-19.6,23.048-18.861s19.865,26.228,18.209,32.122A29.814,29.814,0,0,1,123.2,42.76l-1.594.4s1.848-9.829.448-14.986-8.023-4.568-14.135-6.631c-4.536-1.531-9.283-5.9-11.429-8.056a1.271,1.271,0,0,0-2.067.357C93.3,15.953,91.5,19.7,91.5,22.131c0,2.782-.473,9.031-.675,11.569" fill="#191919"/>
        <path id="Path_671" data-name="Path 671" d="M87.581,119.2c2.26-.64,4.449-1.365,4.449-1.365s-2.256.633-4.449,1.365" fill="#d0a070"/>
        <path id="Path_672" data-name="Path 672" d="M92.129,122.438c1.22-.326,1.8-.5,1.8-.5s-.752.2-1.8.5" fill="#d0a070"/>
        <path id="Path_673" data-name="Path 673" d="M96.133,126.051s-2.96.409-5.58.866c1.445-.082,2.794-.192,3.478-.234,1.7-.1,2.1-.632,2.1-.632" fill="#d0a070"/>
        <path id="Path_674" data-name="Path 674" d="M106.749,109.409c-2.464-1.281-5.453-2.729-7.012-2.425,0,0-9.209.632-10.01.21s-3.3-1.791-3.3-1.475a2.553,2.553,0,0,0,.1,2.107,5.235,5.235,0,0,0,4.7,2.95c2.8,0,5-.632,5.605.1a.383.383,0,0,1,.075.292s9.29-2.047,9.84-1.764" fill="#d0a070"/>
        <path id="Path_675" data-name="Path 675" d="M108.546,139.285,82.181,144.2l-8.32-44.6L91,96.69Z" fill="#adf7ec"/>
        <path id="Path_676" data-name="Path 676" d="M151.484,88.444l-.6-1.58-1.6.105-7.207,22.859s-30.427,1.37-31.528,1.37a19.473,19.473,0,0,1-3.8-1.788c-.549-.283-9.84,1.763-9.84,1.763-.095.878-2.6,2.53-5.98,3.185-3.8.737-7.507,1.37-8.608,2.739s-1,2.949.7,3.055a20.566,20.566,0,0,0,4.559-.953c2.194-.732,4.449-1.365,4.449-1.365s-2.189.725-4.449,1.365c-1.913.639-3.779,1.354-4.059,1.8-.6.948-.7,1.9.2,2.317s0,1.264,4.2.211c1.864-.467,3.231-.825,4.2-1.085,1.051-.293,1.8-.5,1.8-.5s-.583.169-1.8.5c-2.528.7-6.835,1.946-6.9,2.244-.1.421-1.1,1.58.1,2.106a5.216,5.216,0,0,0,1.628.221c1.03.032,2.351-.02,3.6-.092,2.619-.457,5.58-.866,5.58-.866s-.4.527-2.1.632c-.684.042-2.034.152-3.478.234-2.172.379-4.11.791-3.929,1.03.4.527,1.1,2.528,7.407,2.212a32.452,32.452,0,0,0,15.314-5.056c2.6-1.9,4.1-4.424,9.208-3.16s17.316,6.109,21.72,6.636,16.014,1.791,18.617.106,3.6-3.582,3.6-8.639-6.506-24.649-11.01-31.6" fill="#d0a070"/>
      </g>
    </g>
  </g>
</svg>
