<svg id="talking" xmlns="http://www.w3.org/2000/svg" width="72.015" height="60.303" viewBox="0 0 72.015 60.303">
  <path id="Path_13" data-name="Path 13" d="M17.041,25.949A1.055,1.055,0,0,0,15.986,27v1.688a1.055,1.055,0,0,0,2.11,0V27a1.055,1.055,0,0,0-1.055-1.055Zm13.345,1.3a6.217,6.217,0,0,0-2.834-.468,6.217,6.217,0,0,0-2.834.468,2.916,2.916,0,0,0-1.554,2.84,4.6,4.6,0,0,0,4.387,4.784,4.6,4.6,0,0,0,4.388-4.784,2.916,2.916,0,0,0-1.554-2.84Zm-2.834,5.514a2.5,2.5,0,0,1-2.278-2.674c0-.831.092-1.2,2.278-1.2s2.278.367,2.278,1.2a2.5,2.5,0,0,1-2.278,2.674ZM67.264,3.439A18.57,18.57,0,0,0,56.188,0C49.252,0,44.054,3.266,41.793,7.029,34.452,2.347,24.934,2.376,18.519,4.582a1.055,1.055,0,1,0,.686,2,26.835,26.835,0,0,1,11-1.2A23.456,23.456,0,0,1,40.889,8.955a9.483,9.483,0,0,0-.513,3.65c-4.459,1.791-6.63,4.777-13.06,5.769-4.429.683-9.781-.526-12.449-2.814a4.665,4.665,0,0,1-1.836-3.588c0-1.7,1.655-3.052,2.641-3.707A1.055,1.055,0,1,0,14.5,6.508C12.439,7.88,10.82,9.777,10.93,12.255a13.981,13.981,0,0,0-5.182,9.593A8.035,8.035,0,0,0,0,29.141C0,33.161,3.733,36.4,7.624,36.8a18.359,18.359,0,0,0,5.8,6.739,21.048,21.048,0,0,0-6.71,12.191A3.924,3.924,0,0,0,10.581,60.3h27.2a1.055,1.055,0,1,0,0-2.11h-27.2A1.814,1.814,0,0,1,8.8,56.077a18.953,18.953,0,0,1,6.479-11.354,22.431,22.431,0,0,0,3.571,1.631A16.571,16.571,0,0,0,26.2,53.227a3.559,3.559,0,0,0,2.7,0,16.571,16.571,0,0,0,7.359-6.873,22.421,22.421,0,0,0,3.571-1.631A18.953,18.953,0,0,1,46.31,56.077a1.814,1.814,0,0,1-1.786,2.117H41.866a1.055,1.055,0,0,0,0,2.11h2.658a3.924,3.924,0,0,0,3.867-4.576,21.048,21.048,0,0,0-6.71-12.191,18.358,18.358,0,0,0,5.8-6.739c3.887-.4,7.624-3.632,7.624-7.657a7.327,7.327,0,0,0-2.355-5.265,19.329,19.329,0,0,0,14.514-3.153,10.814,10.814,0,0,0,4.75-8.642,10.813,10.813,0,0,0-4.751-8.642ZM2.11,29.141a5.836,5.836,0,0,1,3.973-5.178,3.506,3.506,0,0,0,.357.571,17.847,17.847,0,0,0,.244,9.954c-2.7-.76-4.574-3.178-4.574-5.347ZM40.75,14.735a11.1,11.1,0,0,0,2.905,4.739,14.692,14.692,0,0,1-1.081,3.406c-.015.031-.028.062-.042.094a13.017,13.017,0,0,1-5.8-6A33.1,33.1,0,0,1,40.75,14.735ZM7.826,22.264a12.138,12.138,0,0,1,3.653-7.718A9.86,9.86,0,0,0,17,19.226c-2.757,3.765-5.974,4.482-7.733,4.557a1.388,1.388,0,0,1-1.438-1.52Zm20.28,29.008a1.461,1.461,0,0,1-1.107,0,13.149,13.149,0,0,1-4.971-4.025,27.437,27.437,0,0,0,11.05,0,13.148,13.148,0,0,1-4.971,4.025ZM27.553,45.7c-12.29,0-21.614-8.738-19.238-19.92a3.479,3.479,0,0,0,1.039.113c4.951-.211,8.1-3.569,9.732-5.969a21.658,21.658,0,0,0,8.553.536A21.673,21.673,0,0,0,34.9,18.027c1.079,2.111,3.52,5.837,7.818,7.295A2.469,2.469,0,0,0,44.8,26.455a11.5,11.5,0,0,0,2.06-.356C48.994,37.268,39.579,45.7,27.553,45.7ZM53,29.141c0,2.169-1.871,4.587-4.574,5.347a17.747,17.747,0,0,0,.441-9.11,10.413,10.413,0,0,0,1.391-.788A5.6,5.6,0,0,1,53,29.141Zm-1.261-7.63a1.611,1.611,0,0,0-1.518.407,9.007,9.007,0,0,1-5.372,2.424.37.37,0,0,1-.377-.532A17.271,17.271,0,0,0,45.78,19.6a1.612,1.612,0,0,0-.48-1.468,8.3,8.3,0,0,1-2.829-6.049c0-5.5,6.154-9.971,13.717-9.971s13.717,4.473,13.717,9.971c0,6.986-9.507,11.6-18.171,9.43ZM63.1,8.347H49.272a1.055,1.055,0,0,0,0,2.11H63.1a1.055,1.055,0,0,0,0-2.11Zm-2.229,5.358H51.5a1.055,1.055,0,1,0,0,2.11h9.374a1.055,1.055,0,1,0,0-2.11ZM38.064,25.949A1.055,1.055,0,0,0,37.009,27v1.688a1.055,1.055,0,0,0,2.11,0V27A1.055,1.055,0,0,0,38.064,25.949Z" transform="translate(0 0)" fill="#0f38c1"/>
</svg>
